<svg id="Layer_2" data-name="Layer 2" xmlns="http://www.w3.org/2000/svg" viewBox="0 0 364 82"><defs><style>.cls-1{fill:#004943;}.cls-2{fill:#a9a177;}</style></defs><path class="cls-1" d="M12.23,56.41A30.79,30.79,0,0,0,61.37,36.87c-19.73-3.06-39.08,4-49.14,19.54"/><path class="cls-1" d="M61.6,33.87l.09,0c0-.35,0-1,0-1.39a73.86,73.86,0,0,0-12.2-3.75c-16-3.75-32.93,2.79-47.69,13A31,31,0,0,0,9.51,54.06c10.39-15.3,29-23.64,52.09-20.19"/><path class="cls-2" d="M31.43,11.63h0A81.31,81.31,0,0,0,61,25,30.8,30.8,0,0,0,.17,32c0,.93,0,1.84.13,2.75,11.62-5.95,25.61-15.87,31.13-23.1"/><path class="cls-1" d="M61,25A81.31,81.31,0,0,1,31.43,11.62h0a47.24,47.24,0,0,1-6.64,6.77c-.16-1.58-.32-3.29-.35-4.2-.84.89-3.86,2.83-5.67,4.15-.08.2-.95,3.42-1.68,6.08-1.27.91-2.58,1.81-3.9,2.69A134.49,134.49,0,0,1,.3,34.73a30.51,30.51,0,0,0,.77,4.62c9.39-4.68,20.73-12.6,31.18-20.71C45.33,25.2,55,28.47,61.68,29.91A31.08,31.08,0,0,0,61,25"/><path class="cls-2" d="M60.05,50.48a2.44,2.44,0,1,1-2.44,2.44A2.45,2.45,0,0,1,60.05,50.48Zm0,4.33a1.89,1.89,0,1,0-1.81-1.89A1.83,1.83,0,0,0,60.05,54.81Zm-.94-3.19h.82c.59,0,1.16.14,1.16.75a.76.76,0,0,1-.58.79l.65,1h-.68l-.59-1h-.15v1h-.63Zm.62,1.06H60c.16,0,.42,0,.42-.27s-.26-.28-.42-.28h-.31Z"/><path class="cls-2" d="M307.43,34.65V39.7l6.42,0V45.4A16.56,16.56,0,0,1,307,46.81c-4,0-7-1.13-9.25-3.43a11.66,11.66,0,0,1-3.34-8.62,11.63,11.63,0,0,1,3.43-8.62,11.42,11.42,0,0,1,8.56-3.4,20.22,20.22,0,0,1,10.05,2.91L318.76,27V20.67l-.89-.42a26.5,26.5,0,0,0-11.12-2.83,17.87,17.87,0,0,0-12.83,4.89,16.55,16.55,0,0,0-5.18,12.35A16.58,16.58,0,0,0,294,47.12a18.06,18.06,0,0,0,12.93,5,26.12,26.12,0,0,0,11.54-2.75l.87-.43,0-14.27-11.91,0"/><path class="cls-2" d="M359.94,18l-3.61,0L346.8,29.31l-9.48-11.39h-6.89s13,15.56,13.63,16.38c0,1,0,17.5,0,17.5h5.49s0-16.45,0-17.5L363.25,18h-3.31"/><path class="cls-1" d="M214.78,46.43c0-2.77.06-28.79.06-28.79h-5.49l-.08,33.84,20.66.05V46.46l-15.16,0"/><path class="cls-1" d="M101.83,26.93a3.76,3.76,0,0,1-1.46,3.23,8.25,8.25,0,0,1-5,1.26H91.8c0-2,0-7,0-9h3.47a8.41,8.41,0,0,1,5.07,1.28,3.72,3.72,0,0,1,1.47,3.22m3.64,11.29a27.35,27.35,0,0,0-2.58-3.48,8.77,8.77,0,0,0,4.6-7.84,8.63,8.63,0,0,0-3.17-7c-2-1.67-4.9-2.51-8.55-2.52l-7.88,0H86.34l-.07,33.84,5.48,0s0-12.27,0-14.74H94.4a6.37,6.37,0,0,1,3.5.77c.46.33,1.57,1.39,3.75,4.84l5.86,9.15,6.46,0-8.5-13"/><path class="cls-1" d="M145.87,17.48l-18.34,0-.08,33.85,20.23,0V46.27l-14.74,0c0-2,0-7.38,0-9.42l14,0V31.8l-14,0c0-2,0-7.22,0-9.24l14.4,0V17.49h-1.54"/><path class="cls-2" d="M258.22,46.7a11.74,11.74,0,0,1-8.64-3.51,11.4,11.4,0,0,1-3.51-8.54,11.45,11.45,0,0,1,3.55-8.55,11.68,11.68,0,0,1,8.65-3.47,11.9,11.9,0,0,1,12,12.07,11.9,11.9,0,0,1-12.09,12m12.57-24.32a18.25,18.25,0,0,0-25.18-.06,16.65,16.65,0,0,0-5.2,12.31,16.58,16.58,0,0,0,5.15,12.31,18.22,18.22,0,0,0,25.18.06A16.55,16.55,0,0,0,276,34.72a16.59,16.59,0,0,0-5.18-12.34"/><path class="cls-1" d="M174,34.52l4-9.08,5.72,13.34A24.85,24.85,0,0,0,174,34.52m21.17,16.92-15.47-34h-3.33L168.64,34a34.82,34.82,0,0,0-7.73.86,28,28,0,0,1,6.94.84L160.6,51.36l5.9,0s.14-.32.39-.85l5.85-13.22A26.93,26.93,0,0,1,187,51.43h8.13"/><path class="cls-1" d="M174.48,40.57a1.83,1.83,0,1,0,1.82,1.83,1.81,1.81,0,0,0-1.82-1.83"/><path class="cls-2" d="M86.26,72.22h5.86V74H88.18v1.78h3.64v1.78H88.18V81H86.26Z"/><path class="cls-2" d="M95.82,72.22H99.2c1.79,0,3.3.61,3.3,2.65a2.25,2.25,0,0,1-1.89,2.39L102.83,81h-2.31L98.7,77.46h-1V81H95.82Zm1.93,3.61h1.13c.71,0,1.62,0,1.62-1s-.79-1-1.49-1H97.75Z"/><path class="cls-2" d="M109,72.22h1.59l3.8,8.73h-2.17l-.76-1.85h-3.39L107.36,81h-2.12Zm.74,2.54-1.07,2.71h2.14Z"/><path class="cls-2" d="M117.6,72.22h2.62l3.71,6.07h0V72.22h1.92V81h-2.51l-3.82-6.22h0V81H117.6Z"/><path class="cls-2" d="M135.69,74.49a2,2,0,0,0-1.65-.72A2.84,2.84,0,0,0,134,79.4a2.08,2.08,0,0,0,1.8-.94l1.6,1.2a3.81,3.81,0,0,1-3.15,1.51,4.59,4.59,0,1,1,0-9.18,3.77,3.77,0,0,1,3,1.29Z"/><path class="cls-2" d="M140.75,72.22h1.93v3.25h3.74V72.22h1.92V81h-1.92V77.18h-3.74V81h-1.93Z"/><path class="cls-2" d="M152.42,72.22h1.92V81h-1.92Z"/><path class="cls-2" d="M162.73,74.35a1.87,1.87,0,0,0-1.39-.58c-.54,0-1.3.25-1.3.9,0,1.59,4,.57,4,3.63,0,2-1.56,2.87-3.36,2.87a4.16,4.16,0,0,1-2.94-1.09l1.37-1.51a2.14,2.14,0,0,0,1.68.83c.63,0,1.33-.3,1.33-.92,0-1.6-4.1-.74-4.1-3.65C158,73,159.66,72,161.38,72a3.92,3.92,0,0,1,2.67.92Z"/><path class="cls-2" d="M167.89,72.22h5.94V74h-4v1.63h3.78V77.4h-3.78v1.77h4.23V81h-6.16Z"/><path class="cls-2" d="M183.8,72.5h.87v8.65h-.87Z"/><path class="cls-2" d="M194.44,72.22h3.26c1.53,0,3.19.32,3.19,2.22a2,2,0,0,1-1.5,1.92v0a2.08,2.08,0,0,1,1.91,2.13c0,1.83-1.73,2.43-3.28,2.43h-3.58Zm1.93,3.49h1.39c.59,0,1.21-.25,1.21-.95s-.69-.92-1.3-.92h-1.3Zm0,3.61h1.72c.61,0,1.29-.26,1.29-1s-.93-1-1.56-1h-1.45Z"/><path class="cls-2" d="M204.76,72.22h3.38c1.79,0,3.29.61,3.29,2.65a2.24,2.24,0,0,1-1.89,2.39L211.77,81h-2.31l-1.83-3.49h-.95V81h-1.92Zm1.92,3.61h1.14c.7,0,1.61,0,1.61-1s-.79-1-1.49-1h-1.26Z"/><path class="cls-2" d="M219.32,72a4.59,4.59,0,1,1-4.72,4.59A4.42,4.42,0,0,1,219.32,72Zm0,7.41a2.82,2.82,0,1,0-2.72-2.82A2.64,2.64,0,0,0,219.32,79.4Z"/><path class="cls-2" d="M227.74,72.22h1.92v3.62l3.39-3.62h2.52l-3.89,4.06L235.9,81h-2.69l-3.55-4.14V81h-1.92Z"/><path class="cls-2" d="M239,72.22h5.94V74h-4v1.63h3.79V77.4h-3.79v1.77h4.23V81H239Z"/><path class="cls-2" d="M249,72.22h3.38c1.78,0,3.29.61,3.29,2.65a2.24,2.24,0,0,1-1.89,2.39L256,81h-2.3l-1.83-3.49h-1V81H249Zm1.92,3.61H252c.71,0,1.62,0,1.62-1s-.79-1-1.49-1h-1.26Z"/><path class="cls-2" d="M262.18,72.22h1.59l3.8,8.73H265.4l-.76-1.85h-3.39L260.52,81H258.4Zm.74,2.54-1.06,2.71H264Z"/><path class="cls-2" d="M278.68,80.33a7.78,7.78,0,0,1-3.67.84A4.59,4.59,0,1,1,275,72a4.94,4.94,0,0,1,3.48,1.13l-1.36,1.48A2.82,2.82,0,1,0,275,79.4a3.68,3.68,0,0,0,1.81-.44V77.55h-1.56V75.77h3.42Z"/><path class="cls-2" d="M282.76,72.22h5.94V74h-4v1.63h3.78V77.4h-3.78v1.77h4.23V81h-6.16Z"/><path class="cls-2" d="M298.67,72.5h.87v8.65h-.87Z"/><path class="cls-2" d="M311,73.92h-2.49v-1.7h6.91v1.7h-2.49v7H311Z"/><path class="cls-2" d="M318.69,72.22h1.92V81h-1.92Z"/><path class="cls-2" d="M326.38,73.92h-2.5v-1.7h6.91v1.7H328.3v7h-1.92Z"/><path class="cls-2" d="M334.16,72.22h1.93v7h3.56V81h-5.49Z"/><path class="cls-2" d="M343.11,72.22h5.94V74h-4v1.63h3.78V77.4H345v1.77h4.23V81h-6.16Z"/></svg>