<svg id="Layer_2" data-name="Layer 2" xmlns="http://www.w3.org/2000/svg" viewBox="0 0 246 39"><defs><style>.cls-1{fill:#231f20;}</style></defs><path class="cls-1" d="M20,30.84c-3,3.93-6.46,6.78-10.67,6.78-4.55,0-7.18-2.79-7.18-7.25,0-10.91,12-28.92,23.43-28.92,3.67,0,4.86,1.91,4.86,3.42,0,1.92-.95,3.19-2.87,3.19A1.89,1.89,0,0,1,25.65,6c0-1.12.88-1.6.88-2.31a1.43,1.43,0,0,0-1.44-1.6c-4.86,0-8.6,5.58-10.59,8.93-2.63,4.46-7.81,16.41-7.81,21.51,0,2.16.95,4.31,3.5,4.31,3.34,0,6.68-2.92,9.38-6.42Z"/><path class="cls-1" d="M105.72,30.84c-3,3.93-6.45,6.78-10.67,6.78-4.55,0-7.17-2.79-7.17-7.25,0-10.91,12-28.92,23.42-28.92,3.67,0,4.86,1.91,4.86,3.42,0,1.92-1,3.19-2.87,3.19A1.89,1.89,0,0,1,111.38,6c0-1.12.88-1.6.88-2.31a1.43,1.43,0,0,0-1.44-1.6c-4.86,0-8.6,5.58-10.59,8.93-2.63,4.46-7.81,16.41-7.81,21.51,0,2.16,1,4.31,3.5,4.31,3.34,0,6.68-2.92,9.38-6.42Z"/><path class="cls-1" d="M38.16,37.62c-6.37,0-8.53-5.89-8.53-11.79,0-9.16,9-24.38,19.93-24.38,4.62,0,8.28,3.26,8.28,12C57.84,22.88,49.32,37.62,38.16,37.62ZM49.79,1.92c-7.25,0-16.65,21.6-16.65,29.49,0,3.19,1.2,5.66,4.14,5.66,7.1,0,17-19.13,17-29.17C54.26,4.79,53.54,1.92,49.79,1.92Z"/><path class="cls-1" d="M66.91,7.72c3.54-3.86,7-6.27,9.58-6.27,1.67,0,2,1.35,2,3.1,0,1.52-1.67,6.38-3.59,10.44h.16C79.68,6.55,84.62,1.45,89.4,1.45c2.55,0,4.38,1.19,4.38,3.82a3,3,0,0,1-2.63,3C90,8.3,89,7.74,88.44,5.59a2.44,2.44,0,0,0-2.39-1.91c-3.35,0-8.61,7.57-11.87,14.18-3.43,6.93-6.86,14.9-8.61,18.89H60.63l7.09-15.94c3.11-7,6.14-14,6.14-15.3a1.15,1.15,0,0,0-1.2-1.27c-1.18,0-3.16,1.63-5.34,4Z"/><path class="cls-1" d="M152.64,7.72c3.54-3.86,7-6.27,9.58-6.27,1.67,0,2,1.35,2,3.1,0,1.52-1.67,6.38-3.58,10.44h.15c4.63-8.44,9.57-13.54,14.35-13.54,2.55,0,4.38,1.19,4.38,3.82a3,3,0,0,1-2.63,3c-1.11,0-2.15-.56-2.71-2.71a2.44,2.44,0,0,0-2.39-1.91c-3.35,0-8.6,7.57-11.87,14.18-3.43,6.93-6.85,14.9-8.61,18.89h-4.94l7.09-15.94c3.11-7,6.14-14,6.14-15.3a1.15,1.15,0,0,0-1.2-1.27c-1.18,0-3.16,1.63-5.34,4Z"/><path class="cls-1" d="M123.89,37.62c-6.37,0-8.53-5.89-8.53-11.79,0-9.16,9-24.38,19.93-24.38,4.62,0,8.28,3.26,8.28,12C143.57,22.88,135.05,37.62,123.89,37.62Zm11.64-35.7c-7.26,0-16.66,21.6-16.66,29.49,0,3.19,1.2,5.66,4.14,5.66,7.1,0,17-19.13,17-29.17C140,4.79,139.27,1.92,135.53,1.92Z"/><path class="cls-1" d="M204.4,30.2c-4.16,4.89-8.26,7.42-10.56,7.42a1.78,1.78,0,0,1-2-1.75c0-2.31.87-5.66,3.82-12.27h-.16c-5.82,8.76-11.23,14-17.13,14-3.59,0-6.06-2.15-6.06-5.81,0-9.72,16.18-30.36,27.65-30.36a4.85,4.85,0,0,1,4.94,3.34l1.28-2.47h4.54c-1.27,2.87-8.13,17.14-8.13,17.14C198.46,28.22,197,32.05,197,33.4c0,1,.39,1.2,1,1.2.87,0,3.44-1.94,6-4.92ZM199.5,2.08c-8.05,0-22,22.71-22,29.89,0,2.94,1.36,4.3,3.35,4.3,7.65,0,22.23-23.35,22.23-30.44C203.08,3.2,201.73,2.08,199.5,2.08Z"/><path class="cls-1" d="M240.15,30.82c-4.48,5.22-7.34,6.8-10.14,6.8a2,2,0,0,1-1.91-2.23c0-1.83,1.68-5.5,5.82-14.34,2.71-5.82,5.9-12.11,5.9-14.74,0-.72-.24-2.15-1.6-2.15-4.06,0-12.11,9.32-18.33,21.35a103.89,103.89,0,0,0-5,11.24h-4.7c1-2.71,3.91-9.25,6.7-15.62,4-9.16,5.65-13.55,5.65-15.46,0-.64-.31-1.35-1-1.35-1,0-2.7,1.31-5.84,5.46l-.45-.34c4.42-6.06,7.59-8,10.11-8,1.36,0,2,1,2,2.79,0,2.31-2.07,8.12-6.37,17.45h.16C226.35,12.6,235,1.45,241.49,1.45c2.31,0,3.51,1.11,3.51,3.42,0,2.47-2.32,7.41-6.3,15.78-3.51,7.41-5.26,11.08-5.26,12.51a1.11,1.11,0,0,0,1.12,1.2c.88,0,2.42-.86,5.16-3.91Z"/></svg>