<svg id="Layer_1" data-name="Layer 1" xmlns="http://www.w3.org/2000/svg" xmlns:xlink="http://www.w3.org/1999/xlink" viewBox="0 0 147 66"><defs><style>.cls-1{fill:none;}.cls-2{fill:#2f4582;}.cls-3{clip-path:url(#clip-path);}.cls-4{fill:#fff;}</style><clipPath id="clip-path"><rect class="cls-1" x="0.28" y="0.49" width="146.44" height="65.01"/></clipPath></defs><polygon class="cls-2" points="23.26 54.92 23.26 65.31 30.8 65.31 30.8 63.38 25.42 63.38 25.42 54.92 23.26 54.92"/><polygon class="cls-2" points="52.63 54.94 50.66 60.35 48.16 54.94 47.9 54.94 45.39 60.34 43.46 54.94 41.17 54.94 44.97 65.26 45 65.33 45.32 65.33 48.03 59.53 50.72 65.31 51.05 65.31 54.93 54.94 52.63 54.94"/><polygon class="cls-2" points="55.87 54.92 55.87 65.31 63.57 65.31 63.57 63.35 58.03 63.35 58.03 61.17 62.95 61.17 62.95 59.19 58.03 59.19 58.03 56.86 63.57 56.86 63.57 54.92 55.87 54.92"/><polygon class="cls-2" points="65.32 54.92 65.32 65.31 72.86 65.31 72.86 63.38 67.47 63.38 67.47 54.92 65.32 54.92"/><polygon class="cls-2" points="73.83 54.92 73.83 65.31 81.37 65.31 81.37 63.38 75.99 63.38 75.99 54.92 73.83 54.92"/><g class="cls-3"><path class="cls-2" d="M92.62,57.9a1.23,1.23,0,0,1-.07.42,1.52,1.52,0,0,1-.2.38A1.09,1.09,0,0,1,92,59a1.08,1.08,0,0,1-.46.1H89.28V56.86H91.7a.73.73,0,0,1,.35.09,1.06,1.06,0,0,1,.29.22,1.08,1.08,0,0,1,.21.34,1,1,0,0,1,.07.39M93,62.11a1.2,1.2,0,0,1-.09.45,1.51,1.51,0,0,1-.25.42,1.12,1.12,0,0,1-.36.29.88.88,0,0,1-.42.11H89.28V61h2.43a1.41,1.41,0,0,1,1,.32,1,1,0,0,1,.35.79m1.46-1.59a2.36,2.36,0,0,0-.69-.53l-.29-.13a1.27,1.27,0,0,0,.23-.12,2.22,2.22,0,0,0,.54-.52,2.7,2.7,0,0,0,.36-.67,2,2,0,0,0,.13-.69,3.61,3.61,0,0,0-.25-1.46,2.22,2.22,0,0,0-.67-.9,2.38,2.38,0,0,0-1-.45,5.62,5.62,0,0,0-1.18-.12H87.12V65.31h4.8a5.12,5.12,0,0,0,1.26-.15,2.89,2.89,0,0,0,1-.53,2.63,2.63,0,0,0,.71-1,3.65,3.65,0,0,0,.26-1.45,2.25,2.25,0,0,0-.2-.93,2.86,2.86,0,0,0-.5-.76"/><path class="cls-2" d="M102.15,61.81H99.58l1.29-2.72Zm-1.44-6.87-5.3,10.37h2.35l.78-1.6h4.66l.79,1.6h2.35L101,54.94Z"/><polygon class="cls-2" points="114.13 60.95 107.62 54.97 107.59 54.94 107.23 54.94 107.23 65.31 109.39 65.31 109.39 59.4 115.93 65.31 116.29 65.31 116.29 54.94 114.13 54.94 114.13 60.95"/><polygon class="cls-2" points="127.06 54.94 124.39 54.94 120.51 59.9 120.51 54.92 118.35 54.92 118.35 65.31 120.51 65.31 120.51 60.85 124.62 65.31 127.48 65.31 122.79 60.29 127.06 54.94"/><polygon class="cls-2" points="128.41 65.31 136.12 65.31 136.12 63.35 130.57 63.35 130.57 61.17 135.49 61.17 135.49 59.19 130.57 59.19 130.57 56.86 136.12 56.86 136.12 54.92 128.41 54.92 128.41 65.31"/><path class="cls-2" d="M143.56,59.74a1.12,1.12,0,0,1-.47.3,1.54,1.54,0,0,1-.51.1H140V56.86h2.56a1.38,1.38,0,0,1,.76.18,1.32,1.32,0,0,1,.44.44A1.38,1.38,0,0,1,144,58a2.56,2.56,0,0,1,0,.51,1.73,1.73,0,0,1-.13.71,1.54,1.54,0,0,1-.35.5M140,62.07h1.76l1.13,1.6c.39.54.79,1.08,1.2,1.6l0,0h2.58l-.12-.17c-.81-1.1-1.63-2.22-2.45-3.31a3.33,3.33,0,0,0,1.46-1.22,3.7,3.7,0,0,0,.59-2.08,4.06,4.06,0,0,0-.26-1.45,3.56,3.56,0,0,0-.74-1.14,3.37,3.37,0,0,0-1.15-.75,3.83,3.83,0,0,0-1.46-.27h-4.73V65.31H140Z"/><path class="cls-2" d="M9.51,56.38a5.72,5.72,0,0,0-1.1-.86A5.38,5.38,0,0,0,7.11,55a5.47,5.47,0,0,0-1.46-.2,5.22,5.22,0,0,0-2.08.42A5.43,5.43,0,0,0,.71,58.05a5.27,5.27,0,0,0,0,4.17,5.43,5.43,0,0,0,1.15,1.7,5.34,5.34,0,0,0,1.71,1.16,5.23,5.23,0,0,0,2.08.43,5.47,5.47,0,0,0,1.46-.2,5.38,5.38,0,0,0,2.4-1.43,5,5,0,0,0,.84-1.13l.05-.1-2-.81,0,.07a4.85,4.85,0,0,1-.51.61A3.41,3.41,0,0,1,7.2,63a3.78,3.78,0,0,1-.74.34,2.74,2.74,0,0,1-.81.12,2.82,2.82,0,0,1-1.25-.28,3.4,3.4,0,0,1-1-.73,3.64,3.64,0,0,1-.69-1.07,3.38,3.38,0,0,1,0-2.55A3.44,3.44,0,0,1,4.4,57.05a3,3,0,0,1,1.25-.27,2.74,2.74,0,0,1,.81.12,3.73,3.73,0,0,1,.74.33,4.56,4.56,0,0,1,.64.5,4.85,4.85,0,0,1,.51.61l0,.07,2-.81-.06-.1a5.38,5.38,0,0,0-.84-1.12"/><path class="cls-2" d="M19.6,60.12a3.29,3.29,0,0,1-.26,1.28,3.64,3.64,0,0,1-.69,1.07,3.38,3.38,0,0,1-1,.74,3,3,0,0,1-2.51,0,3.26,3.26,0,0,1-1-.74,3.64,3.64,0,0,1-.69-1.07,3.26,3.26,0,0,1,0-2.55,3.56,3.56,0,0,1,.69-1.08,3.4,3.4,0,0,1,1-.73,3,3,0,0,1,2.51,0,3.53,3.53,0,0,1,1,.73,3.56,3.56,0,0,1,.69,1.08,3.24,3.24,0,0,1,.26,1.27m.57-3.81a5.55,5.55,0,0,0-1.7-1.15,5.32,5.32,0,0,0-4.19,0,5.59,5.59,0,0,0-1.71,1.15A5.52,5.52,0,0,0,11.42,58a5.32,5.32,0,0,0,0,4.19,5.45,5.45,0,0,0,2.86,2.86,5.32,5.32,0,0,0,4.19,0,5.4,5.4,0,0,0,1.7-1.16,5.27,5.27,0,0,0,1.58-3.8A5.24,5.24,0,0,0,21.33,58a5.38,5.38,0,0,0-1.16-1.72"/><path class="cls-2" d="M38.94,60.13a4.1,4.1,0,0,1-.29,1.67,2.46,2.46,0,0,1-.71,1,2.27,2.27,0,0,1-1,.47,4.55,4.55,0,0,1-1.08.13h-2V56.89h2A4.92,4.92,0,0,1,37,57a2.43,2.43,0,0,1,1,.47,2.48,2.48,0,0,1,.72,1,4.14,4.14,0,0,1,.29,1.67m.61-3.9a5.22,5.22,0,0,0-3.66-1.3H31.78V65.31h4.11a6.22,6.22,0,0,0,2-.32,4.87,4.87,0,0,0,1.63-1,4.31,4.31,0,0,0,1.15-1.69,6.43,6.43,0,0,0,0-4.41,4.31,4.31,0,0,0-1.15-1.69"/><rect class="cls-2" x="49.44" y="0.49" width="48.12" height="48.12"/><path class="cls-4" d="M52,46H95v-43H52Zm43.47.49h-44v-44h44Z"/><polygon class="cls-4" points="79.4 16.86 82.77 14.61 86.15 16.86 85.05 12.96 88.23 10.44 84.18 10.28 82.77 6.48 81.37 10.28 77.31 10.44 80.5 12.96 79.4 16.86"/><path class="cls-4" d="M85.41,31.3a5.86,5.86,0,0,0-2.14-1.78,5.21,5.21,0,0,0,1.53-1.67,6.15,6.15,0,0,0,.87-3.2,6.59,6.59,0,0,0-.37-2.13,6.44,6.44,0,0,0-1.07-1.9,5.59,5.59,0,0,0-1.68-1.37,4.71,4.71,0,0,0-2.25-.54H69.19v10a6,6,0,0,1-3-.61,7.75,7.75,0,0,1-1.31-.89A7,7,0,0,1,64,26.4a8.39,8.39,0,0,1-1.46-2.54,8.68,8.68,0,0,1-.52-3A9.29,9.29,0,0,1,62.42,18a7.91,7.91,0,0,1,1.31-2.51,6.62,6.62,0,0,1,2.14-1.78,6.43,6.43,0,0,1,4.44-.51,6,6,0,0,1,1.5.55,5.46,5.46,0,0,1,1.35,1,5.69,5.69,0,0,1,1.06,1.57l.25.53,3-1.94-.19-.4A8.59,8.59,0,0,0,74.05,11a9.61,9.61,0,0,0-5.17-1.37,10.13,10.13,0,0,0-4.51,1A10.48,10.48,0,0,0,61,13.14a11,11,0,0,0-2.07,3.58,12,12,0,0,0,2.22,11.85,11.2,11.2,0,0,0,3.32,2.63l.35.16.23.1q.34.15.69.27l.47.14c.24.07.49.13.73.18l.5.08a9.11,9.11,0,0,0,1.29.09h.45a11.3,11.3,0,0,0,2.19-.34,11.17,11.17,0,0,0,2.57-1,7.86,7.86,0,0,0,.87-.54c.19-.13.37-.26.55-.41a8.19,8.19,0,0,0,.76-.68,5.68,5.68,0,0,0,.47-.51c.14-.18.28-.36.41-.55A8.39,8.39,0,0,0,77.67,27l.13-.34-.32-.28h0l-2.29-2.12s-.24.55-.37.79a7.23,7.23,0,0,1-.59.93,9.18,9.18,0,0,1-.79.93,5.62,5.62,0,0,1-.53.46V22.07h6.46a2.38,2.38,0,0,1,1,.22,2.41,2.41,0,0,1,.82.62,3.2,3.2,0,0,1,.55,1A3.67,3.67,0,0,1,82,25.13a3.1,3.1,0,0,1-.22,1.18,2.87,2.87,0,0,1-.59,1,2.69,2.69,0,0,1-.88.65,2.5,2.5,0,0,1-1.1.24h-1c-.11.19-.22.39-.35.57a7.83,7.83,0,0,1-1,1.22,10.52,10.52,0,0,1-1.6,1.31c-.09.07-.05.1,0,.1H80a2.49,2.49,0,0,1,1.09.25,2.7,2.7,0,0,1,.88.69,3.49,3.49,0,0,1,.6,1,3.38,3.38,0,0,1,.22,1.22A3.14,3.14,0,0,1,82,36.74a3.53,3.53,0,0,1-1,.7,2.77,2.77,0,0,1-1.16.25H72.91V32.47c-.42.15-.84.29-1.27.4a12.07,12.07,0,0,1-2.4.34h0V41H79.82a7.8,7.8,0,0,0,2.58-.42,6.59,6.59,0,0,0,2.14-1.2A5.68,5.68,0,0,0,86,37.51,5.46,5.46,0,0,0,86.57,35a6.22,6.22,0,0,0-1.16-3.74"/><path class="cls-4" d="M85.48,40.88l.1-.13a.76.76,0,0,0,.47.16c.23,0,.35-.12.35-.26s-.18-.22-.39-.26-.54-.08-.54-.4.29-.42.52-.42a.78.78,0,0,1,.5.16l-.09.14a.7.7,0,0,0-.42-.13c-.13,0-.33.06-.33.24s.3.23.47.26.46.09.46.41-.24.42-.52.42a.87.87,0,0,1-.58-.19"/><polygon class="cls-4" points="86.76 41.04 86.76 39.6 86.79 39.6 87.47 40.44 88.16 39.6 88.19 39.6 88.19 41.04 88.01 41.04 88.01 40.07 87.47 40.74 86.94 40.07 86.94 41.04 86.76 41.04"/></g></svg>