<svg id="Layer_2" data-name="Layer 2" xmlns="http://www.w3.org/2000/svg" viewBox="0 0 225 78"><defs><style>.cls-1{fill:#0a2240;}</style></defs><polygon class="cls-1" points="201.1 11.85 195.79 24.73 197.04 24.73 207.15 11.85 201.1 11.85"/><path class="cls-1" d="M13,43.07a19.22,19.22,0,0,1-8.63-2l-2.21,2h-1L.43,30.47l1.19-.11c3.57,8.17,7.77,10.78,11.69,10.78,4.08,0,6.47-2.67,6.47-6.24,0-3.41-1.31-5-6.64-7.27-1.82-.73-3.92-1.47-5.68-2.32-4-2-6.07-5.11-6.07-9.25C1.39,9.31,7.24,5.22,13,5.22a12.51,12.51,0,0,1,6.64,1.87l2.21-1.93h1l1,11.12-1.14.18c-3.12-6.25-6.46-9.31-10.15-9.31a5.12,5.12,0,0,0-5.39,5.5c0,2.67,1.13,4.71,5.16,6.47,2,.91,4.31,1.7,6.41,2.73,4.6,2.21,6.75,5.1,6.75,9.3,0,7.49-6.3,11.92-12.42,11.92"/><path class="cls-1" d="M43,17.31c-4,0-6.41,4.42-6.41,12.2s2.61,12,6.64,12,6.41-4.42,6.41-12.19-2.44-12-6.64-12m-.22,25.81c-8.63,0-12.88-6.18-12.88-13.73,0-7,4.88-13.67,13.61-13.67s12.77,6.13,12.77,13.62c0,7-4.77,13.78-13.5,13.78"/><path class="cls-1" d="M68.57,42.9c-4.48,0-5.9-2.22-5.9-6.3v-17h-4.2v-.79l5.22-4.14,4.15-5.39h.85v7.37h8.62v2.95H68.69v14.7c0,2.27.34,3.63,1.47,4.42a7,7,0,0,0,4.15.91c.9,0,2-.06,3.12-.11l0,.79a18.81,18.81,0,0,1-8.91,2.56"/><path class="cls-1" d="M95.07,20a12.42,12.42,0,0,0-5.9,1.42V40.23l3.18,1.19v.79H79.53v-.79l3.57-1.19V6L79.18,3.41V2.84L88.94.17l.23.17V20.2l.23.11c3.35-3.17,6.41-4.59,9.47-4.59,5.11,0,7.27,3.86,7.27,7.89V40.23l3.57,1.19v.79H96.89v-.79l3.18-1.19V25.93c0-3.69-1.48-5.9-5-5.9"/><path class="cls-1" d="M129.4,25.53c-.22-5.33-1.75-8.22-5.1-8.22s-5.85,3.46-6.13,8.73l11.23-.51Zm-11.29,1.93c0,7.21,2,11.92,8.46,11.92a23.3,23.3,0,0,0,8.57-1.82l.34.68c-3.47,3-7.32,4.88-11,4.88-7.77,0-12.88-5.33-12.88-13.22,0-8.11,6.13-14.18,13.06-14.18,7.49,0,11.12,5,11.06,11.74Z"/><path class="cls-1" d="M151.82,19.69a11.23,11.23,0,0,0-4.48.91v18a8.5,8.5,0,0,0,6.18,2.61c3.35,0,6.13-3,6.13-11,0-7-3-10.5-7.83-10.5m-1,23.43a38.69,38.69,0,0,1-9.59-1.47V6l-4-2.55V2.84L147.11.17l.23.17v19l.22.11a11.62,11.62,0,0,1,8.23-3.74c5.39,0,10.27,4.93,10.27,13.05s-6.13,14.35-15.21,14.35"/><path class="cls-1" d="M181.61,44c-2.84,7-5.51,10.05-9,10.05-3,0-4.42-1.76-4.42-3.58a3.38,3.38,0,0,1,3.4-3.23c1.93,0,3.07,1,4.43,2.72a21.94,21.94,0,0,0,3.12-4.82l1-2.16L170,18.72l-3.46-1.36v-.73h13.85v.73l-3.64,1.36,6.13,16.63h.29l5.56-16.23-3.29-1.76v-.73h9.75v.73l-3.68,1.88L181.61,44Z"/><path class="cls-1" d="M214,43.12a22.38,22.38,0,0,1-8.4-1.53l-.06-7.49,1.14-.11c3.06,5.39,5.39,7.43,8.39,7.43a4,4,0,0,0,4.32-4.31c0-3-3-4.09-6.24-5.39-3.58-1.53-7.38-3.24-7.38-7.94,0-4.49,4-8.06,9.76-8.06a24.18,24.18,0,0,1,6.86,1l.17,6.75-1.07.29c-2.78-4.6-4.6-6.36-7.21-6.36a3.58,3.58,0,0,0-3.86,3.63c0,2.95,3.07,4.14,6.3,5.45,3.57,1.47,7.43,3.18,7.43,8,0,5.28-4.65,8.62-10.15,8.62"/><path class="cls-1" d="M1.15,77.37H2.42V64.17H1.15v13.2Zm5.84,0H8.18V66.15h0l7.51,11.22h1.12V64.17H15.66V75.05h0L8.34,64.17H7v13.2Zm17,0h1.27v-12H29.5V64.17H19.71v1.18H24v12Zm8.39,0h8.26V76.21h-7V71h4.94V69.82H33.63V65.35h6.62V64.17H32.36v13.2Zm11.69,0h1.24V71.45h3.29l3.23,5.92h1.43L49.9,71.31c1.91-.36,3.16-1.43,3.16-3.57,0-2.32-1.65-3.57-4.59-3.57H44.05v13.2Zm1.24-7.05v-5h3.07c2.22,0,3.43.64,3.43,2.46s-1.23,2.53-3.41,2.53Zm12.16,7.05h1.19V66.15h0l7.51,11.22h1.12V64.17H66.12V75.05h0L58.8,64.17H57.45v13.2Zm13.27,0H72l1.41-4.07h5.35l1.41,4.07h1.32L76.77,64.11H75.4L70.72,77.37Zm3-5.19L76,65.61h0l2.26,6.57Zm12.78,5.19H87.8v-12h4.26V64.17H82.27v1.18h4.26v12Zm8.56,0h1.27V64.17H95.09v13.2Zm10.64.25c3.23,0,5.57-2.71,5.57-6.85s-2.34-6.85-5.57-6.85-5.57,2.71-5.57,6.85,2.34,6.85,5.57,6.85Zm0-1.14c-2.5,0-4.3-2.12-4.3-5.71s1.8-5.69,4.3-5.69,4.3,2.1,4.3,5.69-1.8,5.71-4.3,5.71Zm9.62.89h1.19V66.15h0l7.51,11.22h1.12V64.17H124V75.05h0L116.7,64.17h-1.35v13.2Zm13.29,0h1.23l1.41-4.07h5.35L138,77.37h1.32l-4.67-13.26h-1.38l-4.67,13.26Zm3-5.19,2.27-6.57h0l2.26,6.57Zm11.21,5.19h7.72V76.21h-6.45v-12h-1.27v13.2Zm15.29,0h1.25V71.45h3.28l3.23,5.92h1.43L164,71.31c1.91-.36,3.16-1.43,3.16-3.57,0-2.32-1.64-3.57-4.59-3.57h-4.42v13.2Zm1.25-7.05v-5h3.07c2.21,0,3.42.64,3.42,2.46s-1.23,2.53-3.4,2.53Zm11.79,7.05h8.26V76.21h-7V71h4.94V69.82h-4.94V65.35h6.62V64.17h-7.89v13.2Zm9.89,0h1.23l1.41-4.07h5.35l1.41,4.07h1.32l-4.67-13.26h-1.38L181.1,77.37Zm3-5.19,2.27-6.57h0l2.27,6.57ZM195,77.37h7.72V76.21h-6.46v-12H195v13.2Zm11.25,0h1.27v-12h4.26V64.17H202v1.18h4.26v12Zm11.41,0h1.26V71.56l4.45-7.39H222l-3.69,6.3-3.72-6.3h-1.37l4.43,7.39v5.81Z"/></svg>