<svg id="Layer_2" data-name="Layer 2" xmlns="http://www.w3.org/2000/svg" viewBox="0 0 271 32"><defs><style>.cls-1{fill:#b1a283;}</style></defs><path class="cls-1" d="M144.77,18.75a6.72,6.72,0,1,1-13.43,0V.9h-5.79V18.75a12.51,12.51,0,1,0,25,0V.9h-5.8Z"/><path class="cls-1" d="M15.22,6.7a9.35,9.35,0,0,1,6.42,2.55L25,4.45a15.18,15.18,0,1,0,0,23.26l-3.33-4.8A9.38,9.38,0,1,1,15.22,6.7Z"/><polygon class="cls-1" points="80.6 21.3 66.47 0.9 66.47 0.9 60.67 0.9 60.67 31.26 66.47 31.26 66.47 10.86 80.6 31.26 80.6 31.26 80.6 31.26 86.39 31.26 86.39 0.9 80.6 0.9 80.6 21.3"/><polygon class="cls-1" points="94.11 0.9 94.11 6.7 103.07 6.7 103.07 31.26 108.87 31.26 108.87 6.7 117.83 6.7 117.83 0.9 94.11 0.9"/><polygon class="cls-1" points="253.99 0.9 253.99 6.7 257.15 6.7 257.15 31.26 262.95 31.26 262.95 0.9 253.99 0.9"/><polygon class="cls-1" points="32.7 0.9 32.7 31.26 52.94 31.26 52.94 25.46 38.5 25.46 38.5 18.98 50.09 18.98 50.09 13.18 38.5 13.18 38.5 6.7 52.94 6.7 52.94 0.9 32.7 0.9"/><path class="cls-1" d="M181.6,11.09A10.21,10.21,0,0,0,171.4.9H158.3V31.26h5.8v-10h3.7l6.9,10h6.9l-7.22-10.42A10.22,10.22,0,0,0,181.6,11.09Zm-10.2,4.4h-7.3V6.7h7.3a4.4,4.4,0,1,1,0,8.79Z"/><polygon class="cls-1" points="208.15 0.9 199.65 13.18 191.15 0.9 184.26 0.9 196.75 18.95 196.75 31.26 202.55 31.26 202.55 18.95 215.04 0.9 208.15 0.9"/><path class="cls-1" d="M245.79,16.07l.15-.22a9.6,9.6,0,1,0-17.56-5.35c0,.12,0,.24,0,.36h5.81a2.17,2.17,0,0,1,0-.36A3.8,3.8,0,0,1,238,6.7a3.67,3.67,0,0,1,3.79,3.8,7.44,7.44,0,0,1-1.22,2.95L228.22,31.26h19.92v-5.8h-8.85Z"/><path class="cls-1" d="M267.84,26.2a2.62,2.62,0,0,1,1.23.32,2.4,2.4,0,0,1,.94.93,2.58,2.58,0,0,1,.33,1.26A2.53,2.53,0,0,1,270,30a2.35,2.35,0,0,1-.92.93,2.57,2.57,0,0,1-1.25.33,2.54,2.54,0,0,1-1.25-.33,2.31,2.31,0,0,1-.93-.93,2.53,2.53,0,0,1-.33-1.24,2.49,2.49,0,0,1,.34-1.26,2.28,2.28,0,0,1,.94-.93A2.62,2.62,0,0,1,267.84,26.2Zm0,.41a2.14,2.14,0,0,0-1,.27,2,2,0,0,0-.78.78,2.07,2.07,0,0,0-.28,1.05,2.11,2.11,0,0,0,.27,1,2,2,0,0,0,.78.78,2.07,2.07,0,0,0,2.08,0,1.93,1.93,0,0,0,.77-.78,2,2,0,0,0,.28-1,2.17,2.17,0,0,0-.28-1.05,1.91,1.91,0,0,0-.79-.78A2.1,2.1,0,0,0,267.84,26.61Zm-1.1,3.48v-2.7h.93a2.19,2.19,0,0,1,.68.08.68.68,0,0,1,.34.26.65.65,0,0,1,.13.39.73.73,0,0,1-.21.52.83.83,0,0,1-.56.25.74.74,0,0,1,.23.14,2.89,2.89,0,0,1,.39.53l.33.53h-.53l-.24-.42a2.2,2.2,0,0,0-.45-.63.58.58,0,0,0-.35-.09h-.26v1.14Zm.43-1.52h.53a.83.83,0,0,0,.52-.11.36.36,0,0,0,.14-.3.38.38,0,0,0-.07-.21.36.36,0,0,0-.18-.14,1.41,1.41,0,0,0-.44,0h-.5Z"/></svg>