<svg id="Layer_1" data-name="Layer 1" xmlns="http://www.w3.org/2000/svg" xmlns:xlink="http://www.w3.org/1999/xlink" viewBox="0 0 163 40"><defs><style>.cls-1{fill:none;}.cls-2{fill:#aca47d;}.cls-3{clip-path:url(#clip-path);}.cls-4{fill:#06534e;}</style><clipPath id="clip-path"><rect class="cls-1" x="-16.36" y="-8.43" width="194.91" height="58.86"/></clipPath></defs><polygon class="cls-2" points="39.45 32.64 43.82 32.64 43.82 33.97 40.89 33.97 40.89 35.29 43.6 35.29 43.6 36.62 40.89 36.62 40.89 39.16 39.45 39.16 39.45 32.64"/><g class="cls-3"><path class="cls-2" d="M45.74,32.64h2.53c1.33,0,2.45.46,2.45,2a1.69,1.69,0,0,1-1.41,1.79L51,39.16H49.25l-1.36-2.61h-.71v2.61H45.74Zm1.44,2.7H48c.52,0,1.2,0,1.2-.73s-.59-.75-1.11-.75h-.94Z"/><path class="cls-2" d="M55.64,32.64h1.19l2.84,6.52H58.05l-.57-1.38H55l-.54,1.38H52.83Zm.56,1.9-.79,2H57Z"/><polygon class="cls-2" points="62.11 32.64 64.06 32.64 66.83 37.17 66.85 37.17 66.85 32.64 68.28 32.64 68.28 39.16 66.41 39.16 63.56 34.52 63.55 34.52 63.55 39.16 62.11 39.16 62.11 32.64"/><path class="cls-2" d="M75.66,34.34a1.53,1.53,0,0,0-1.23-.54,2.11,2.11,0,0,0-.05,4.2,1.58,1.58,0,0,0,1.35-.7l1.19.89a2.84,2.84,0,0,1-2.35,1.13,3.42,3.42,0,1,1,0-6.84,2.81,2.81,0,0,1,2.2,1Z"/><polygon class="cls-2" points="79.5 32.64 80.93 32.64 80.93 35.07 83.72 35.07 83.72 32.64 85.16 32.64 85.16 39.16 83.72 39.16 83.72 36.34 80.93 36.34 80.93 39.16 79.5 39.16 79.5 32.64"/><rect class="cls-2" x="88.26" y="32.64" width="1.43" height="6.51"/><path class="cls-2" d="M96,34.24a1.38,1.38,0,0,0-1-.44c-.4,0-1,.19-1,.67,0,1.19,3,.43,3,2.71,0,1.45-1.17,2.14-2.51,2.14a3,3,0,0,1-2.19-.82l1-1.12a1.58,1.58,0,0,0,1.25.62c.47,0,1-.22,1-.68,0-1.2-3-.55-3-2.73A2.23,2.23,0,0,1,95,32.48a2.93,2.93,0,0,1,2,.68Z"/><polygon class="cls-2" points="99.92 32.64 104.35 32.64 104.35 33.97 101.36 33.97 101.36 35.18 104.18 35.18 104.18 36.51 101.36 36.51 101.36 37.83 104.51 37.83 104.51 39.16 99.92 39.16 99.92 32.64"/><path class="cls-2" d="M117.87,38.7a5.82,5.82,0,0,1-2.73.62,3.42,3.42,0,1,1,0-6.84,3.67,3.67,0,0,1,2.59.84l-1,1.1a2,2,0,0,0-1.58-.62,2.1,2.1,0,0,0,0,4.2,2.85,2.85,0,0,0,1.35-.32V36.62h-1.17V35.29h2.55Z"/><path class="cls-2" d="M120.93,32.64h2.52c1.33,0,2.45.46,2.45,2a1.68,1.68,0,0,1-1.4,1.79l1.65,2.75h-1.72l-1.36-2.61h-.71v2.61h-1.43Zm1.43,2.7h.85c.52,0,1.2,0,1.2-.73s-.59-.75-1.11-.75h-.94Z"/><path class="cls-2" d="M131.85,32.48a3.42,3.42,0,1,1-3.52,3.42,3.29,3.29,0,0,1,3.52-3.42m0,5.52a2.1,2.1,0,1,0-2-2.1,2,2,0,0,0,2,2.1"/><path class="cls-2" d="M143.62,36.65a2.75,2.75,0,0,1-5.49,0v-4h1.43v4a1.32,1.32,0,1,0,2.63,0v-4h1.43Z"/><path class="cls-2" d="M146.74,32.64h2.42c1.35,0,2.48.44,2.48,2s-1,2-2.42,2h-1v2.54h-1.44Zm1.44,2.76h.95c.51,0,1-.17,1-.78s-.68-.76-1.23-.76h-.73Z"/><path class="cls-4" d="M5.47,25.29a13.75,13.75,0,0,0,22-8.73c-8.81-1.36-17.45,1.78-22,8.73"/><path class="cls-4" d="M27.53,15.22l0,0c0-.16,0-.47,0-.63a33.54,33.54,0,0,0-5.45-1.67C15,11.27,7.4,14.18.81,18.76a13.72,13.72,0,0,0,3.45,5.48c4.64-6.83,12.94-10.56,23.27-9"/><path class="cls-2" d="M14.05,5.29h0a36.28,36.28,0,0,0,13.18,6A13.75,13.75,0,0,0,.09,14.38c0,.41,0,.82.06,1.22C5.34,13,11.59,8.52,14.05,5.29"/><path class="cls-4" d="M27.24,11.24a36.09,36.09,0,0,1-13.19-6h0a21.73,21.73,0,0,1-3,3c-.08-.71-.15-1.47-.16-1.88-.38.4-1.73,1.27-2.54,1.86,0,.09-.42,1.52-.74,2.71-.57.41-1.16.81-1.75,1.21a59.51,59.51,0,0,1-5.75,3.4,12.83,12.83,0,0,0,.34,2.06A92.27,92.27,0,0,0,14.42,8.42a57,57,0,0,0,13.14,5,14.71,14.71,0,0,0-.32-2.21"/><path class="cls-2" d="M26.83,22.64a1.09,1.09,0,1,1-1.09,1.09,1.09,1.09,0,0,1,1.09-1.09m0,1.94a.82.82,0,0,0,.81-.85.81.81,0,1,0-.81.85m-.41-1.43h.36c.27,0,.52.06.52.34a.35.35,0,0,1-.26.35l.29.45H27l-.26-.44H26.7v.44h-.28Zm.27.47h.14c.07,0,.19,0,.19-.12s-.12-.12-.19-.12h-.14Z"/><path class="cls-2" d="M137.34,15.57v2.26h2.87v2.54a7.5,7.5,0,0,1-3.06.63A5.47,5.47,0,0,1,133,19.47a5.22,5.22,0,0,1-1.49-3.85,5.21,5.21,0,0,1,5.35-5.37,9,9,0,0,1,4.5,1.3l1,.58V9.32L142,9.14a11.94,11.94,0,0,0-5-1.27,8,8,0,0,0-5.73,2.19A7.37,7.37,0,0,0,129,15.57a7.42,7.42,0,0,0,2.33,5.57,8.11,8.11,0,0,0,5.78,2.24,11.81,11.81,0,0,0,5.15-1.24l.39-.18,0-6.38h-5.32"/><path class="cls-2" d="M160.79,8.12h-1.61l-4.26,5.07c-.82-1-4.23-5.09-4.23-5.09h-3.08l6.09,7.32c0,.47,0,7.81,0,7.81h2.45s0-7.35,0-7.82l6.12-7.29h-1.48"/><path class="cls-4" d="M96,20.83C96,19.6,96,8,96,8H93.53l0,15.11,9.23,0V20.85l-6.77,0"/><path class="cls-4" d="M45.5,12.12a1.7,1.7,0,0,1-.66,1.45,3.69,3.69,0,0,1-2.24.56H41v-4h1.56a3.72,3.72,0,0,1,2.26.58,1.65,1.65,0,0,1,.66,1.43m1.62,5A12.48,12.48,0,0,0,46,15.61,4,4,0,0,0,48,12.11,3.86,3.86,0,0,0,46.61,9a5.84,5.84,0,0,0-3.82-1.13H38.58l0,15.12H41s0-5.48,0-6.59h1.17a2.86,2.86,0,0,1,1.56.34,8.35,8.35,0,0,1,1.68,2.16L48,23h2.89l-3.8-5.83"/><path class="cls-4" d="M65.17,7.9,57,7.88l0,15.12,9,0V20.76H59.4c0-.91,0-3.3,0-4.21h6.24V14.29H59.41c0-.9,0-3.23,0-4.13h6.43V7.9h-.69"/><path class="cls-2" d="M115.35,21a5.24,5.24,0,0,1-3.86-1.56,5.11,5.11,0,0,1-1.56-3.82,5.1,5.1,0,0,1,1.58-3.82,5.53,5.53,0,0,1,7.69,0,5.11,5.11,0,0,1,1.55,3.83,5.31,5.31,0,0,1-5.4,5.36M121,10.09a8.14,8.14,0,0,0-11.25,0,7.46,7.46,0,0,0-2.32,5.5,7.4,7.4,0,0,0,2.3,5.5,8.14,8.14,0,0,0,11.25,0,7.41,7.41,0,0,0,2.33-5.49A7.38,7.38,0,0,0,121,10.09"/><path class="cls-4" d="M77.72,15.51l1.8-4.06,2.55,6a11.05,11.05,0,0,0-4.35-1.91m9.46,7.56L80.27,7.86H78.78l-3.44,7.42a15.08,15.08,0,0,0-3.45.39A12.27,12.27,0,0,1,75,16l-3.24,7h2.63l.18-.38,2.61-5.9a12,12,0,0,1,6.38,6.3h3.63"/><path class="cls-4" d="M78,18.21a.82.82,0,0,0-.81.82.81.81,0,1,0,1.62,0,.82.82,0,0,0-.81-.82"/></g></svg>