<svg id="Layer_2" data-name="Layer 2" xmlns="http://www.w3.org/2000/svg" viewBox="0 0 112 137"><defs><style>.cls-1{fill:#0c3279;}.cls-2{fill:#d91a32;}.cls-3{fill:#910237;}</style></defs><path class="cls-1" d="M11.93,136l-1.76-2.62H8.75V136H7v-8.2H10.7c1.93,0,3.09,1,3.09,2.71v0A2.53,2.53,0,0,1,12,133.08L14,136Zm0-5.4c0-.77-.54-1.17-1.42-1.17H8.75v2.36h1.83c.88,0,1.39-.47,1.39-1.17Z"/><path class="cls-1" d="M17.05,136v-8.2h6.19v1.61h-4.4v1.66h3.87v1.61H18.84v1.72H23.3V136Z"/><path class="cls-1" d="M32.65,136l-.74-1.82H28.46L27.72,136H25.89l3.49-8.2H31l3.48,8.2Zm-2.5-6.09-1.09,2.66h2.18Z"/><path class="cls-1" d="M37.42,136v-8.2h1.8v6.56h4.09V136Z"/><path class="cls-1" d="M51.45,136v-8.2h6.18v1.61H53.24v1.66h3.87v1.61H53.24v1.72h4.45V136Z"/><path class="cls-1" d="M63.85,136.13a5.23,5.23,0,0,1-3.49-1.31l1.07-1.28a3.76,3.76,0,0,0,2.45,1c.74,0,1.18-.3,1.18-.78v0c0-.46-.28-.69-1.65-1-1.65-.42-2.72-.88-2.72-2.51v0a2.57,2.57,0,0,1,2.87-2.48,4.74,4.74,0,0,1,3,1.05l-.94,1.36a3.78,3.78,0,0,0-2.13-.81c-.69,0-1,.31-1,.71v0c0,.53.35.71,1.77,1.07,1.66.44,2.6,1,2.6,2.46v0C66.86,135.22,65.62,136.13,63.85,136.13Z"/><path class="cls-1" d="M73.77,129.47V136H72v-6.54h-2.5v-1.66h6.8v1.66Z"/><path class="cls-1" d="M85.4,136l-.74-1.82H81.21L80.47,136H78.64l3.49-8.2h1.65l3.49,8.2Zm-2.5-6.09-1.09,2.66H84Z"/><path class="cls-1" d="M93.88,129.47V136h-1.8v-6.54h-2.5v-1.66h6.8v1.66Z"/><path class="cls-1" d="M99.39,136v-8.2h6.19v1.61h-4.4v1.66h3.87v1.61h-3.87v1.72h4.46V136Z"/><path class="cls-1" d="M7,108.8V75.19H32.3v6.57h-18v6.82H30.13v6.58H14.29v7.06H32.54v6.58Z"/><path class="cls-1" d="M65,105.12l-2.86-4.18-2.84-4.15a10.43,10.43,0,0,0,7.2-10.42v-.09c0-6.92-4.75-11.09-12.67-11.09H38.49v30.62c0,2.26,1.83,3,4.09,3h3.3V98h5.81l6,8.9.1.16A4,4,0,0,0,61,108.8h6.5ZM59,86.76c0,2.83-2.06,4.75-5.66,4.75H45.88V81.86h7.35c3.6,0,5.8,1.63,5.8,4.8Z"/><path class="cls-1" d="M91.33,75.19H84.56l-10.9,25.62-2.39,5.62-1,2.37H75a4.12,4.12,0,0,0,3.78-2.5v0l2-5H94.91l3,7.49h7.68ZM83.42,94.7l4.43-10.82L92.29,94.7Z"/><rect class="cls-2" x="6.95" y="114.95" width="98.69" height="6.72"/><polygon class="cls-2" points="1.02 72.05 56.3 47.09 56.3 0.94 1.02 40.67 1.02 72.05"/><polygon class="cls-3" points="111.57 72.05 56.29 47.09 56.29 0.94 111.57 40.67 111.57 72.05"/><path class="cls-1" d="M99.47,77.61h0a2.31,2.31,0,1,1,4.61,0v0a2.31,2.31,0,0,1-4.61,0Zm4.34,0v0a2,2,0,1,0-4.07,0h0a2,2,0,0,0,2,2A2,2,0,0,0,103.81,77.6Zm-3-1.3h1.14a1.13,1.13,0,0,1,.83.28.75.75,0,0,1,.21.56h0a.77.77,0,0,1-.5.75l.58.86h-.78l-.5-.75h-.3v.75h-.68Zm1.13,1.18c.24,0,.37-.11.37-.28v0c0-.19-.15-.29-.38-.29h-.44v.59Z"/></svg>