<svg id="Layer_2" data-name="Layer 2" xmlns="http://www.w3.org/2000/svg" viewBox="0 0 140 135"><defs><style>.cls-1{fill:#14377d;}.cls-2{fill:#fff;}</style></defs><polygon class="cls-1" points="43.44 93.31 39.77 93.31 39.77 111.02 52.61 111.02 52.61 107.72 43.44 107.72 43.44 93.31"/><polygon class="cls-1" points="86.47 102.57 82.2 93.34 81.75 93.34 77.48 102.54 74.2 93.34 70.28 93.34 76.77 110.92 76.81 111.04 77.36 111.04 81.99 101.17 86.56 111.02 87.14 111.02 93.74 93.34 89.82 93.34 86.47 102.57"/><polygon class="cls-1" points="95.35 111.02 108.48 111.02 108.48 107.67 99.02 107.67 99.02 103.96 107.41 103.96 107.41 100.59 99.02 100.59 99.02 96.61 108.48 96.61 108.48 93.31 95.35 93.31 95.35 111.02"/><polygon class="cls-1" points="115.13 93.31 111.45 93.31 111.45 111.02 124.3 111.02 124.3 107.72 115.13 107.72 115.13 93.31"/><polygon class="cls-1" points="129.64 93.31 125.97 93.31 125.97 111.02 138.81 111.02 138.81 107.72 129.64 107.72 129.64 93.31"/><path class="cls-1" d="M28.28,121.55a2.27,2.27,0,0,1-.12.72,2.12,2.12,0,0,1-.34.65,1.77,1.77,0,0,1-.56.45,1.74,1.74,0,0,1-.79.17H22.58v-3.76h4.13a1.2,1.2,0,0,1,.59.15,1.65,1.65,0,0,1,.51.39,2,2,0,0,1,.35.56,1.93,1.93,0,0,1,.12.67m.72,7.17a2.17,2.17,0,0,1-.16.78,2.71,2.71,0,0,1-.42.71,2.09,2.09,0,0,1-.61.5,1.51,1.51,0,0,1-.72.18H22.58v-4h4.16a2.36,2.36,0,0,1,1.66.55,1.71,1.71,0,0,1,.6,1.33M31.49,126a4.26,4.26,0,0,0-1.18-.9,4.4,4.4,0,0,0-.5-.21,3.72,3.72,0,0,0,.39-.21,3.58,3.58,0,0,0,.93-.89,4.31,4.31,0,0,0,.61-1.14,3.44,3.44,0,0,0,.22-1.17,6.34,6.34,0,0,0-.42-2.49,3.71,3.71,0,0,0-1.14-1.54,4.18,4.18,0,0,0-1.68-.77,9.25,9.25,0,0,0-2-.21H18.9v17.71h8.19a8.15,8.15,0,0,0,2.14-.27A4.65,4.65,0,0,0,31,133a4.27,4.27,0,0,0,1.21-1.65,6.24,6.24,0,0,0,.44-2.47,3.9,3.9,0,0,0-.33-1.59,5.21,5.21,0,0,0-.85-1.3"/><path class="cls-1" d="M44.53,128.21H40.15l2.2-4.63Zm-2.45-11.7-9,17.68h4l1.33-2.73h7.94l1.35,2.73h4l-9-17.68Z"/><polygon class="cls-1" points="64.94 126.75 53.85 116.55 53.8 116.5 53.19 116.5 53.19 134.19 56.87 134.19 56.87 124.11 68.02 134.19 68.62 134.19 68.62 116.5 64.94 116.5 64.94 126.75"/><polygon class="cls-1" points="86.98 116.5 82.44 116.5 75.81 124.95 75.81 116.48 72.14 116.48 72.14 134.19 75.81 134.19 75.81 126.58 82.83 134.19 87.71 134.19 79.71 125.63 86.98 116.5"/><polygon class="cls-1" points="89.29 134.19 102.42 134.19 102.42 130.84 92.97 130.84 92.97 127.13 101.35 127.13 101.35 123.75 92.97 123.75 92.97 119.78 102.42 119.78 102.42 116.48 89.29 116.48 89.29 134.19"/><path class="cls-1" d="M115.12,124.69a2.19,2.19,0,0,1-.8.51,2.58,2.58,0,0,1-.87.17h-4.38v-5.59h4.38a2.45,2.45,0,0,1,1.3.3,2.3,2.3,0,0,1,.74.75,2.8,2.8,0,0,1,.36.93,5.13,5.13,0,0,1,.09.87,2.84,2.84,0,0,1-.24,1.21,2.66,2.66,0,0,1-.58.85m-6.05,4h3c.64.93,1.29,1.84,1.93,2.73s1.35,1.83,2,2.73l0,.07h4.4l-.21-.29c-1.37-1.89-2.77-3.79-4.18-5.65a5.66,5.66,0,0,0,2.49-2.08,6.28,6.28,0,0,0,1-3.54,6.65,6.65,0,0,0-.45-2.47,5.75,5.75,0,0,0-1.26-2,5.56,5.56,0,0,0-2-1.28,6.7,6.7,0,0,0-2.5-.45h-8.06v17.71h3.68Z"/><path class="cls-1" d="M16.32,95.8a9.52,9.52,0,0,0-1.87-1.48A9.2,9.2,0,0,0,9.75,93a8.92,8.92,0,0,0-3.56.72,9.77,9.77,0,0,0-2.91,2,9.59,9.59,0,0,0-2,2.91,9.14,9.14,0,0,0,0,7.11,9.29,9.29,0,0,0,4.88,4.88,9.11,9.11,0,0,0,6,.39,9.35,9.35,0,0,0,2.22-1,9.52,9.52,0,0,0,1.87-1.48,8.73,8.73,0,0,0,1.43-1.92l.1-.18-3.43-1.39-.08.13a7.69,7.69,0,0,1-.87,1,5.66,5.66,0,0,1-1.09.86,5.48,5.48,0,0,1-1.26.57,4.51,4.51,0,0,1-1.37.21,5,5,0,0,1-2.14-.47,5.56,5.56,0,0,1-1.73-1.25,6.07,6.07,0,0,1-1.18-1.82,5.72,5.72,0,0,1,0-4.35,6,6,0,0,1,1.18-1.83,5.56,5.56,0,0,1,1.73-1.25,5,5,0,0,1,2.14-.47,4.83,4.83,0,0,1,1.37.2,5.52,5.52,0,0,1,1.26.58,6,6,0,0,1,1.09.85,6.58,6.58,0,0,1,.87,1l.08.12,3.43-1.39-.1-.18a9,9,0,0,0-1.43-1.89"/><path class="cls-1" d="M33.52,102.17a5.59,5.59,0,0,1-.44,2.18,6.38,6.38,0,0,1-1.18,1.83,5.8,5.8,0,0,1-1.75,1.26,5.06,5.06,0,0,1-4.26,0,5.92,5.92,0,0,1-1.75-1.26A6.38,6.38,0,0,1,23,104.35,5.72,5.72,0,0,1,23,100a5.83,5.83,0,0,1,2.93-3.09,5.16,5.16,0,0,1,4.26,0A5.83,5.83,0,0,1,33.08,100a5.57,5.57,0,0,1,.44,2.17m1-6.49a9.41,9.41,0,0,0-2.91-2,9.09,9.09,0,0,0-7.14,0,9.26,9.26,0,0,0-4.88,4.89,9.21,9.21,0,0,0,0,7.14,9.52,9.52,0,0,0,2,2.91,9.41,9.41,0,0,0,2.91,2,9.09,9.09,0,0,0,7.14,0,9.29,9.29,0,0,0,4.88-4.88,9.21,9.21,0,0,0,0-7.14,9.4,9.4,0,0,0-2-2.92"/><path class="cls-1" d="M66.48,102.19A7.08,7.08,0,0,1,66,105a4.42,4.42,0,0,1-1.22,1.67,4,4,0,0,1-1.64.81,8.29,8.29,0,0,1-1.83.21H58V96.66h3.35a8.25,8.25,0,0,1,1.81.21,4.07,4.07,0,0,1,1.65.79A4.3,4.3,0,0,1,66,99.34a7.14,7.14,0,0,1,.48,2.85m1-6.65a8.9,8.9,0,0,0-6.22-2.23h-7V111h7a10.36,10.36,0,0,0,3.45-.56,7.83,7.83,0,0,0,2.77-1.65,7.62,7.62,0,0,0,2-2.87,11.07,11.07,0,0,0,0-7.53,7.78,7.78,0,0,0-2-2.87"/><rect class="cls-1" x="28.69" y="0.56" width="82.02" height="82.02"/><path class="cls-2" d="M33.07,78.2h73.26V4.94H33.07Zm74.1.83H32.24V4.1h74.93Z"/><polygon class="cls-2" points="79.75 28.46 85.51 24.62 91.26 28.46 89.39 21.8 94.81 17.52 87.9 17.24 85.51 10.76 83.11 17.24 76.2 17.52 81.63 21.8 79.75 28.46"/><path class="cls-2" d="M90,53.07a9.82,9.82,0,0,0-3.63-3A9.1,9.1,0,0,0,89,47.19a10.59,10.59,0,0,0,1.47-5.45,10.94,10.94,0,0,0-.63-3.64A10.67,10.67,0,0,0,88,34.87a9.35,9.35,0,0,0-2.87-2.34,8,8,0,0,0-3.83-.92H62.36V48.72a10.12,10.12,0,0,1-5.2-1,11.66,11.66,0,0,1-2.23-1.51,11.33,11.33,0,0,1-1.49-1.45A14.31,14.31,0,0,1,51,40.39a15,15,0,0,1-.89-5.15,16.11,16.11,0,0,1,.75-4.83,13.46,13.46,0,0,1,2.24-4.28,11.35,11.35,0,0,1,3.64-3.05,11.08,11.08,0,0,1,7.57-.86,9.6,9.6,0,0,1,2.57.94,9.4,9.4,0,0,1,2.29,1.73,9.69,9.69,0,0,1,1.81,2.68l.42.9,5.1-3.31-.33-.68a14.58,14.58,0,0,0-5.48-6.09,16.19,16.19,0,0,0-8.81-2.33,17.3,17.3,0,0,0-7.69,1.67,18,18,0,0,0-5.73,4.38,19,19,0,0,0-3.53,6.11,19.94,19.94,0,0,0,.1,14,20.57,20.57,0,0,0,3.69,6.25,19.24,19.24,0,0,0,5.65,4.47c.2.1.41.18.61.27l.38.18c.39.17.78.32,1.18.46l.81.25c.41.11.82.21,1.24.29s.57.1.85.14a15.69,15.69,0,0,0,2.19.15l.78,0A19,19,0,0,0,66.09,54a18.75,18.75,0,0,0,4.37-1.72A16.26,16.26,0,0,0,72,51.4c.32-.22.63-.45.93-.7a14.35,14.35,0,0,0,1.3-1.16c.28-.28.54-.57.79-.87s.48-.62.7-.94a12.14,12.14,0,0,0,1.12-2.07l.23-.58-.55-.49h0L72.58,41s-.41.92-.63,1.34a13.08,13.08,0,0,1-1,1.59,14.06,14.06,0,0,1-1.36,1.58,11.06,11.06,0,0,1-.9.79v-9h11a4.19,4.19,0,0,1,1.76.38,3.94,3.94,0,0,1,1.39,1,5.54,5.54,0,0,1,1,1.69,6.07,6.07,0,0,1,.36,2.11,5.39,5.39,0,0,1-1.39,3.66,4.62,4.62,0,0,1-1.5,1.11,4.24,4.24,0,0,1-1.87.4H77.74c-.19.34-.39.66-.6,1a14.14,14.14,0,0,1-1.71,2.07A18.39,18.39,0,0,1,72.7,53c-.16.11-.09.17,0,.17h8.14a4.14,4.14,0,0,1,1.86.43,4.62,4.62,0,0,1,1.5,1.17,6,6,0,0,1,1,1.76,5.72,5.72,0,0,1,.38,2.08,5.34,5.34,0,0,1-.39,2,5.53,5.53,0,0,1-1.1,1.7,5.63,5.63,0,0,1-1.65,1.17,4.46,4.46,0,0,1-2,.43H68.69v-8.9a19.58,19.58,0,0,1-2.17.69,20.05,20.05,0,0,1-4.08.59h-.08V69.67H80.47a13.44,13.44,0,0,0,4.4-.71,11.54,11.54,0,0,0,3.65-2,9.85,9.85,0,0,0,2.53-3.25A9.67,9.67,0,0,0,92,59.44a10.54,10.54,0,0,0-2-6.37"/><path class="cls-2" d="M90.12,69.39l.17-.22a1.25,1.25,0,0,0,.81.27c.38,0,.59-.19.59-.43s-.31-.39-.67-.45-.92-.13-.92-.69.5-.7.89-.7a1.43,1.43,0,0,1,.85.26l-.16.24a1.17,1.17,0,0,0-.71-.22c-.22,0-.55.1-.55.42s.49.38.79.44.79.16.79.7-.41.71-.89.71A1.43,1.43,0,0,1,90.12,69.39Z"/><path class="cls-2" d="M92.3,69.67V67.21h0l1.17,1.43,1.16-1.43h.06v2.46h-.31V68l-.91,1.14L92.61,68v1.65Z"/></svg>