<svg id="Layer_1" data-name="Layer 1" xmlns="http://www.w3.org/2000/svg" xmlns:xlink="http://www.w3.org/1999/xlink" viewBox="0 0 54 66"><defs><style>.cls-1{fill:none;}.cls-2{fill:#bcaf8a;}.cls-3{clip-path:url(#clip-path);}</style><clipPath id="clip-path"><rect class="cls-1" x="0.43" width="52.61" height="66"/></clipPath></defs><path class="cls-2" d="M28.9,42.09l6-8.61.14-.2a8.79,8.79,0,0,0,1.5-4.91,8.91,8.91,0,0,0-.25-2.08,8.8,8.8,0,0,0-17.34,2.4h5.23c0-.11,0-.23,0-.34a3.57,3.57,0,0,1,3.57-3.56,3.45,3.45,0,0,1,3.56,3.56,7,7,0,0,1-1.15,2.77L18.54,47.83H34.11l4-5.74Z"/><g class="cls-3"><polygon class="cls-2" points="42.52 19.13 42.45 19.13 38.48 24.87 43.47 24.87 43.47 47.83 49.21 47.83 49.21 19.13 42.52 19.13 42.52 19.13"/><path class="cls-2" d="M44.65,58.76A27.64,27.64,0,0,1,23.14,7.84,27.59,27.59,0,0,1,49,10.16l3.11-4.49A33.09,33.09,0,1,0,33.89,66.39a32.86,32.86,0,0,0,18.87-5.91L49.65,56a27.31,27.31,0,0,1-5,2.76Z"/></g><path class="cls-2" d="M52.08,45.91h.2c.16.23.24.16.24,0a.19.19,0,0,0-.07-.16s-.09-.05-.17,1.1h-.2v-1Zm.59.22a.45.45,0,0,1-.28.15l.44.59h-.31l-.4-1h-1v1h.95V45h.2a.5.5,0,0,1,.35.12.38.38,0,0,1,.14.31.46.46,0,0,1-.1.29m.11,1.53a1,1,0,0,0,.4-.4,1.29,1.29,0,0,0,0-1.17,1,1,0,0,0-.4-.4,1.18,1.18,0,0,0-1.15,0,1,1,0,0,0-.4.4,1.29,1.29,0,0,0,0,1.17,1,1,0,0,0,.4.4,1.18,1.18,0,0,0,1.15,0M52.91,45a1.33,1.33,0,0,1,.48.49,1.47,1.47,0,0,1,0,1.41,1.33,1.33,0,0,1-.48.49,1.53,1.53,0,0,1-1.4,0,1.28,1.28,0,0,1-.49-.49,1.47,1.47,0,0,1,0-1.41,1.28,1.28,0,0,1,.49-.49,1.53,1.53,0,0,1,1.4,0"/></svg>