<svg id="Layer_2" data-name="Layer 2" xmlns="http://www.w3.org/2000/svg" xmlns:xlink="http://www.w3.org/1999/xlink" viewBox="0 0 244 63"><defs><style>.cls-1{fill:#231f20;}.cls-2{fill:url(#linear-gradient);}</style><linearGradient id="linear-gradient" x1="0.58" y1="59.48" x2="243.16" y2="59.48" gradientTransform="translate(181.35 -62.39) rotate(90)" gradientUnits="userSpaceOnUse"><stop offset="0" stop-color="#aebfd0"/><stop offset="0.14" stop-color="#aebfd0"/><stop offset="0.5" stop-color="#ffd138"/><stop offset="1" stop-color="#f1717c"/></linearGradient></defs><path class="cls-1" d="M18.42,30.28c-3,3.93-6.45,6.78-10.67,6.78C3.2,37.06.58,34.27.58,29.81.58,18.89,12.61.88,24,.88c3.67,0,4.86,1.91,4.86,3.43,0,1.91-.95,3.18-2.87,3.18a1.88,1.88,0,0,1-1.91-2.07c0-1.11.88-1.59.88-2.31a1.42,1.42,0,0,0-1.44-1.59c-4.86,0-8.6,5.58-10.59,8.92C10.3,14.9,5.12,26.86,5.12,32c0,2.15,1,4.3,3.5,4.3,3.34,0,6.68-2.91,9.38-6.41Z"/><path class="cls-1" d="M104.15,30.28c-3,3.93-6.45,6.78-10.67,6.78-4.54,0-7.17-2.79-7.17-7.25,0-10.92,12-28.93,23.42-28.93,3.67,0,4.86,1.91,4.86,3.43,0,1.91-1,3.18-2.86,3.18a1.88,1.88,0,0,1-1.92-2.07c0-1.11.88-1.59.88-2.31a1.42,1.42,0,0,0-1.44-1.59c-4.86,0-8.6,5.58-10.59,8.92C96,14.9,90.85,26.86,90.85,32c0,2.15,1,4.3,3.5,4.3,3.34,0,6.68-2.91,9.38-6.41Z"/><path class="cls-1" d="M36.59,37.06c-6.37,0-8.53-5.9-8.53-11.8C28.06,16.1,37.07.88,48,.88c4.62,0,8.28,3.27,8.28,12C56.27,22.32,47.75,37.06,36.59,37.06ZM48.22,1.36C41,1.36,31.57,23,31.57,30.84c0,3.19,1.2,5.66,4.14,5.66,7.1,0,17-19.13,17-29.17C52.69,4.23,52,1.36,48.22,1.36Z"/><path class="cls-1" d="M65.34,7.15c3.54-3.86,7-6.27,9.58-6.27,1.67,0,2,1.35,2,3.11,0,1.51-1.67,6.37-3.58,10.44h.15C78.11,6,83.05.88,87.83.88c2.55,0,4.38,1.2,4.38,3.82a3,3,0,0,1-2.63,3c-1.11,0-2.15-.55-2.71-2.71a2.44,2.44,0,0,0-2.39-1.91c-3.35,0-8.6,7.57-11.87,14.18C69.18,24.23,65.76,32.2,64,36.18H59.06l7.09-15.94c3.11-7,6.14-14,6.14-15.3a1.15,1.15,0,0,0-1.2-1.27c-1.18,0-3.16,1.63-5.34,4Z"/><path class="cls-1" d="M151.07,7.15c3.54-3.86,7-6.27,9.58-6.27,1.67,0,2,1.35,2,3.11,0,1.51-1.67,6.37-3.58,10.44h.16C163.84,6,168.78.88,173.56.88c2.55,0,4.38,1.2,4.38,3.82a3,3,0,0,1-2.63,3c-1.11,0-2.15-.55-2.71-2.71a2.44,2.44,0,0,0-2.39-1.91c-3.35,0-8.6,7.57-11.87,14.18-3.43,6.94-6.85,14.91-8.61,18.89h-4.94l7.09-15.94c3.11-7,6.14-14,6.14-15.3a1.15,1.15,0,0,0-1.2-1.27c-1.18,0-3.16,1.63-5.34,4Z"/><path class="cls-1" d="M122.32,37.06c-6.37,0-8.52-5.9-8.52-11.8,0-9.16,9-24.38,19.92-24.38,4.62,0,8.28,3.27,8.28,12C142,22.32,133.48,37.06,122.32,37.06ZM134,1.36C126.7,1.36,117.3,23,117.3,30.84c0,3.19,1.2,5.66,4.14,5.66,7.1,0,17-19.13,17-29.17C138.42,4.23,137.7,1.36,134,1.36Z"/><path class="cls-1" d="M202.83,29.64c-4.16,4.88-8.26,7.42-10.56,7.42a1.78,1.78,0,0,1-2-1.76c0-2.31.87-5.65,3.82-12.27h-.16c-5.82,8.77-11.23,14-17.13,14-3.59,0-6.06-2.15-6.06-5.82,0-9.72,16.18-30.36,27.65-30.36a4.85,4.85,0,0,1,4.94,3.35l1.28-2.47h4.54C207.89,4.63,201,18.89,201,18.89c-4.14,8.76-5.65,12.59-5.65,13.94,0,1,.39,1.2,1,1.2.87,0,3.44-1.94,6-4.91Zm-4.9-28.12c-8.05,0-22,22.71-22,29.88,0,3,1.36,4.3,3.35,4.3,7.65,0,22.23-23.35,22.23-30.44C201.51,2.63,200.16,1.52,197.93,1.52Z"/><path class="cls-1" d="M238.58,30.26c-4.48,5.22-7.34,6.8-10.14,6.8a2,2,0,0,1-1.91-2.23c0-1.84,1.68-5.5,5.82-14.35,2.71-5.81,5.9-12.11,5.9-14.74,0-.72-.24-2.15-1.6-2.15-4.06,0-12.11,9.32-18.33,21.35a104.77,104.77,0,0,0-5,11.24h-4.7c1-2.71,3.91-9.24,6.7-15.62C219.28,11.4,221,7,221,5.1c0-.63-.31-1.35-.95-1.35-1,0-2.7,1.31-5.84,5.46l-.45-.33c4.42-6.07,7.59-8,10.11-8,1.36,0,2,1,2,2.79,0,2.31-2.07,8.13-6.37,17.45h.16C224.78,12,233.38.88,239.92.88c2.31,0,3.5,1.12,3.5,3.43,0,2.47-2.31,7.41-6.29,15.77-3.51,7.41-5.26,11.08-5.26,12.51a1.11,1.11,0,0,0,1.12,1.2c.88,0,2.42-.85,5.16-3.91Z"/><rect class="cls-2" x="119.23" y="-61.81" width="5.28" height="242.58" transform="translate(62.39 181.35) rotate(-90)"/></svg>